{"title":"Moonrise Kingdom 2012 DVDrip English Klam","uid":7876386,"size":1680469882,"categoryP":"video","categoryS":"movies","magnet":"?xt=urn:btih:93a64c96a14131366171363056608721a032e14b&amp;dn=Moonrise+Kingdom+2012+DVDrip+English+Klam&amp;tr=udp%3A%2F%2Ftracker.openbittorrent.com%3A80&amp;tr=udp%3A%2F%2Fopen.demonii.com%3A1337&amp;tr=udp%3A%2F%2Ftracker.coppersurfer.tk%3A6969&amp;tr=udp%3A%2F%2Fexodus.desync.com%3A6969","seeders":2,"leechers":1,"uploader":"Klambake","files":-1,"time":1354356885,"description":"With: Bruce Willis, Edward Norton and Bill Murray\n\nDe film speelt zich af op een eiland voor de kust van New England in de jaren '60. Een jongeman en een meisje worden verliefd op elkaar en besluiten samen weg te lopen. Iedereen is in rep en roer en de hele stad wordt op zijn kop gezet om ze te vinden, wat misschien niet eens zo'n slecht idee is.\n\nA pair of young lovers flee their New England town, which causes a local search party to fan out and find them. \n &lt;a href=&quot;\nhttp://www.imdb.com/title/tt1748122&quot; rel=&quot;nofollow&quot; target=&quot;_NEW&quot;&gt;\nhttp://www.imdb.com/title/tt1748122&lt;/a&gt;\t\n\n------------------------ Dutch Friends ------------------------\n---------------------------------------------------------------\n- Bezoek ook eens mijn vrienden op: &lt;a href=&quot; http://www.Film-Test.nl&quot; rel=&quot;nofollow&quot; target=&quot;_NEW&quot;&gt; http://www.Film-Test.nl&lt;/a&gt; --\n----- voor mijn Nederlandse Sync. ondertitels ---- en meer ----\n------- http://www.Film-Test.nl ---- Over Films en meer -------\n---------------------------------------------------------------\n\n\nGeneral:\n\nComplete name                    : Moonrise KingdomMoonrise Kingdom.avi\nFormat                           : AVI\nFormat/Info                      : Audio Video Interleave\nFile size                        : 1.56 GiB\nDuration                         : 1h 30mn\nOverall bit rate                 : 2 482 Kbps\n\nVideo:\n\nFormat                           : MPEG-4 Visual\nFormat profile                   : Simple@L3\nFormat settings, BVOP            : No\nFormat settings, QPel            : No\nFormat settings, GMC             : No warppoints\nFormat settings, Matrix          : Default (H.263)\nCodec ID                         : XVID\nCodec ID/Hint                    : XviD\nDuration                         : 1h 30mn\nBit rate                         : 2 024 Kbps\nWidth                            : 704 pixels\nHeight                           : 396 pixels\nDisplay aspect ratio             : 16:9\nFrame rate                       : 25.000 fps\nColor space                      : YUV\nChroma subsampling               : 4:2:0\nBit depth                        : 8 bits\nScan type                        : Progressive\nCompression mode                 : Lossy\nBits/(Pixel*Frame)               : 0.290\nStream size                      : 1.28 GiB (82%)\nWriting library                  : XviD 1.1.2 (UTC 2006-11-01)\n\nAudio:\n\nFormat                           : AC-3\nFormat/Info                      : Audio Coding 3\nMode extension                   : CM (complete main)\nCodec ID                         : 2000\nDuration                         : 1h 30mn\nBit rate mode                    : Constant\nBit rate                         : 448 Kbps\nChannel(s)                       : 6 channels\nChannel positions                : Front: L C R, Side: L R, LFE\nSampling rate                    : 48.0 KHz\nBit depth                        : 16 bits\nCompression mode                 : Lossy\nStream size                      : 289 MiB (18%)\nAlignment                        : Aligned on interleaves\nInterleave, duration             : 32 ms (0.80 video frame)\nInterleave, preload duration     : 32 ms","torrent":{"xt":"urn:btih:93a64c96a14131366171363056608721a032e14b","amp;dn":"Moonrise+Kingdom+2012+DVDrip+English+Klam","amp;tr":["udp%3A%2F%2Ftracker.openbittorrent.com%3A80","udp%3A%2F%2Fopen.demonii.com%3A1337","udp%3A%2F%2Ftracker.coppersurfer.tk%3A6969","udp%3A%2F%2Fexodus.desync.com%3A6969"],"infoHash":"93a64c96a14131366171363056608721a032e14b","infoHashBuffer":{"type":"Buffer","data":[147,166,76,150,161,65,49,54,97,113,54,48,86,96,135,33,160,50,225,75]},"announce":[],"urlList":[]}}